<svg width="190" height="18" viewBox="0 0 190 18" fill="none" xmlns="http://www.w3.org/2000/svg">
<path d="M94.6122 17.6822H88.1448V0.392079H94.6122V17.6822ZM88.7764 17.0506H93.9806V1.02366H88.7764V17.0506ZM103.611 17.6822H97.2737V0.392079H110.514C112.411 0.238479 114.3 0.770988 115.837 1.89271C116.499 2.49815 117.012 3.24832 117.336 4.08466C117.66 4.92101 117.786 5.82092 117.705 6.71418C117.8 8.25773 117.309 9.78012 116.33 10.9773C115.171 12.3062 113.244 12.9908 110.601 13.0148C109.936 13.0325 104.947 13.0148 103.615 13.0148L103.611 17.6822ZM97.9015 17.0506H102.979V12.3769H103.296C103.361 12.3769 109.837 12.3971 110.586 12.3769C113.048 12.3554 114.818 11.7453 115.852 10.5542C116.724 9.47096 117.156 8.10006 117.065 6.71292C117.143 5.91255 117.035 5.10503 116.75 4.35301C116.465 3.60099 116.011 2.92467 115.423 2.3765C113.997 1.35347 112.253 0.873253 110.505 1.02239H97.9053L97.9015 17.0506ZM109.173 9.13061H102.936V4.42408H109.214C109.659 4.36259 110.113 4.41453 110.532 4.57506C110.952 4.73561 111.324 4.99955 111.614 5.34239C111.878 5.78063 112.002 6.28847 111.971 6.79882C111.994 7.27263 111.892 7.74425 111.674 8.16555C111.374 8.52666 110.987 8.80465 110.549 8.97277C110.111 9.1409 109.637 9.19351 109.173 9.12555V9.13061ZM103.568 8.49903H109.173C110.208 8.49903 110.85 8.28303 111.134 7.8384C111.291 7.51522 111.362 7.15725 111.34 6.79882C111.368 6.42247 111.286 6.04615 111.105 5.71503L111.098 5.70366C110.797 5.26155 110.2 5.05566 109.214 5.05566H103.568V8.49903ZM129.232 17.9373C123.56 17.9373 120.175 16.5289 118.885 13.6325C118.674 13.073 118.531 12.4904 118.458 11.8969L118.403 11.5331H125.15L125.195 11.7984C125.246 12.0677 125.361 12.3212 125.528 12.5386C125.795 12.8607 126.684 13.4013 129.635 13.4013C133.181 13.4013 133.181 12.7786 133.181 12.4439C133.181 11.8792 132.771 11.686 129.878 11.3778L129.329 11.326C128.24 11.2237 126.863 11.0936 126.234 11.0392C120.929 10.5592 118.56 8.91082 118.56 5.69608C118.56 2.31966 122.591 0.138184 128.83 0.138184C133.919 0.138184 137.198 1.47966 138.574 4.1285C138.9 4.74464 139.12 5.41186 139.222 6.10155L139.266 6.4565H132.511L132.483 6.17103C132.456 5.94793 132.362 5.73863 132.21 5.57229C131.957 5.23376 131.159 4.67418 128.681 4.67418C125.638 4.67418 125.219 5.06324 125.219 5.4826C125.219 6.04218 126.18 6.2405 129.261 6.57018C130.545 6.67503 132.611 6.88724 133.318 6.97313C137.765 7.45566 139.75 9.06366 139.75 12.1887C139.751 14.8098 137.926 17.9373 129.232 17.9373ZM119.14 12.1647C119.203 12.5813 119.312 12.9896 119.465 13.3824C120.64 16.0211 123.835 17.3058 129.232 17.3058C133.744 17.3058 139.123 16.4216 139.123 12.1887C139.123 9.4186 137.368 8.04682 133.251 7.60092C132.544 7.51503 130.491 7.30408 129.209 7.19797C125.925 6.84176 124.589 6.65229 124.589 5.4826C124.589 4.2725 126.028 4.04261 128.683 4.04261C130.781 4.04261 132.137 4.42155 132.712 5.18576C132.868 5.37404 132.987 5.59117 133.06 5.82492H138.535C138.425 5.33639 138.251 4.86453 138.017 4.42155C136.754 1.99755 133.668 0.769763 128.832 0.769763C122.978 0.769763 119.195 2.70366 119.195 5.69608C119.195 8.55082 121.318 9.9605 126.292 10.4102C126.924 10.4645 128.299 10.5946 129.391 10.6982L129.944 10.75C132.631 11.0329 133.816 11.2098 133.816 12.4439C133.816 13.7727 132.283 14.0329 129.637 14.0329C127.189 14.0329 125.643 13.6653 125.045 12.9416C124.861 12.7108 124.722 12.4472 124.636 12.1647H119.14ZM151.75 17.9159C145.156 17.9159 141.518 15.2493 141.518 10.4064V0.392079H147.9V10.4064C147.9 12.0674 149.387 13.0199 151.977 13.0199C154.453 13.0199 155.99 12.0258 155.99 10.4279V0.392079H162.306V10.9369C162.312 15.3719 158.461 17.9159 151.746 17.9159H151.75ZM142.15 1.02366V10.4064C142.15 16.3912 148.16 17.2843 151.75 17.2843C155.461 17.2843 161.685 16.4594 161.685 10.9369V1.02366H156.632V10.4279C156.632 12.3858 154.808 13.6514 151.987 13.6514C149.039 13.6514 147.278 12.4388 147.278 10.4064V1.02366H142.15ZM189.07 17.6822H183.047V9.87587L179.632 17.6822H174.378L170.998 9.89103V17.6822H164.954V0.392079H172.904L177.035 9.92513L181.365 0.392079H189.077L189.07 17.6822ZM183.679 17.0506H188.438V1.02366H181.766L177.014 11.4813L172.485 1.02366H165.58V17.0506H170.361V6.85187L174.782 17.0544H179.203L183.671 6.86703L183.679 17.0506ZM6.64716 0.707868H0.894737V17.3664H16.7903V12.9314H6.64716V0.707868ZM28.4013 0.32892C21.0585 0.32892 17.1971 3.80892 17.1971 8.9184C17.1971 14.691 21.2505 17.619 28.4013 17.619C36.2733 17.619 39.584 14.2237 39.584 8.9184C39.584 3.53103 35.8488 0.326394 28.4013 0.326394V0.32892ZM28.3798 4.65776C28.8796 4.65541 29.3792 4.68452 29.8754 4.74492L23.4446 11.1757C23.1403 10.4874 22.9919 9.74021 23.0101 8.98787C23.0101 6.37439 24.3263 4.65524 28.3798 4.65524V4.65776ZM28.4013 13.3584C27.9196 13.3605 27.4384 13.3335 26.96 13.2776L33.4021 6.83545C33.695 7.51237 33.8352 8.24555 33.8126 8.98282C33.8126 11.5256 32.6 13.3559 28.4013 13.3559V13.3584ZM50.9815 11.0847H56.9019C56.8147 11.4956 56.6331 11.8805 56.3714 12.2089C55.144 13.2088 53.5775 13.6954 51.9996 13.5668C51.2053 13.6518 50.4022 13.565 49.6444 13.3124C48.8867 13.0599 48.1919 12.6474 47.6076 12.1028C47.009 11.2248 46.7246 10.1703 46.8004 9.1104C46.7035 7.99975 47.0128 6.89168 47.6707 5.99166C48.4981 5.05692 49.8989 4.65397 51.9579 4.65397C53.2679 4.54551 54.5763 4.88195 55.6716 5.60892C56.0168 5.88313 56.2749 6.25176 56.4143 6.66997H61.9053C61.8653 5.98088 61.6996 5.30492 61.4164 4.67545C60.1015 2.00134 57.0446 0.409763 51.8467 0.409763C47.3259 0.409763 44.2918 1.78913 42.6156 3.86955C41.5085 5.3719 40.9403 7.20358 41.0025 9.06871C40.9309 10.9761 41.4846 12.8545 42.5789 14.4182C44.235 16.5656 47.1844 17.6216 50.7288 17.6216C53.0853 17.7859 55.4256 17.1259 57.3491 15.7546L57.4981 17.3664H62.0594V7.49861H50.9815V11.0847ZM75.0055 0.325131C67.664 0.325131 63.8013 3.80513 63.8013 8.91461C63.8013 14.6872 67.8535 17.6152 75.0055 17.6152C82.8787 17.6152 86.1895 14.2199 86.1895 8.91461C86.1895 3.53103 82.4543 0.326394 75.0055 0.326394V0.325131ZM74.9853 4.65397C75.472 4.65253 75.9583 4.68037 76.4417 4.73734L70.0362 11.1466C69.7414 10.4659 69.5979 9.72947 69.6156 8.98787C69.6105 6.37439 70.9318 4.65397 74.9853 4.65397ZM75.0055 13.3546C74.5111 13.3568 74.0171 13.328 73.5263 13.2687L79.9899 6.80387C80.2939 7.4898 80.4395 8.23543 80.4156 8.98534C80.4181 11.5256 79.2105 13.3559 75.0055 13.3559V13.3546Z" fill="#0F0B0C"/>
</svg>
