<svg width="158" height="40" viewBox="0 0 158 40" fill="none" xmlns="http://www.w3.org/2000/svg">
<path d="M18.217 7.82422V2.82422H2.41699V37.1772H18.217V32.1772C14.9803 32.1772 11.8762 30.8942 9.58765 28.6107C7.299 26.3272 6.01326 23.2301 6.01326 20.0007C6.01326 16.7713 7.299 13.6741 9.58765 11.3906C11.8762 9.1071 14.9803 7.82422 18.217 7.82422Z" fill="#0F0B0C"/>
<path d="M18.2173 7.82422V32.1772C21.4539 32.1772 24.558 30.8942 26.8467 28.6107C29.1353 26.3272 30.421 23.2301 30.421 20.0007C30.421 16.7713 29.1353 13.6741 26.8467 11.3906C24.558 9.1071 21.4539 7.82422 18.2173 7.82422Z" fill="#0F0B0C"/>
<path d="M39.2876 10.8828H42.8249V27.8828H39.2876V10.8828Z" fill="#0F0B0C"/>
<path d="M44.8057 22.0592C44.8057 20.8361 45.1697 19.6406 45.8515 18.6241C46.5332 17.6076 47.5021 16.816 48.6353 16.3495C49.7686 15.8832 51.015 15.7629 52.2168 16.0041C53.4185 16.2453 54.5214 16.837 55.3857 17.7043C56.25 18.5717 56.8368 19.6755 57.0717 20.876C57.3065 22.0764 57.1789 23.3194 56.7049 24.4474C56.2309 25.5753 55.4321 26.5375 54.4094 27.2119C53.3868 27.8863 52.1865 28.2426 50.9607 28.2356C50.1477 28.242 49.3415 28.0863 48.5896 27.7776C47.8377 27.469 47.155 27.0137 46.5817 26.4386C46.0084 25.8633 45.5561 25.1795 45.2511 24.4275C44.9462 23.6755 44.7948 22.8703 44.8057 22.0592ZM53.6726 22.0592C53.6587 21.5319 53.4892 21.0203 53.1855 20.5887C52.8818 20.1569 52.4573 19.8241 51.9649 19.6319C51.4726 19.4396 50.9345 19.3964 50.4178 19.5079C49.901 19.6192 49.4286 19.88 49.0597 20.2579C48.6908 20.6356 48.4416 21.1135 48.3435 21.6319C48.2454 22.1502 48.3026 22.6859 48.508 23.1719C48.7134 23.6579 49.0578 24.0728 49.4983 24.3644C49.9387 24.6562 50.4555 24.8119 50.9842 24.8121C51.3442 24.8192 51.7017 24.752 52.0345 24.6148C52.3672 24.4777 52.668 24.2736 52.9181 24.0153C53.1682 23.7569 53.3621 23.4497 53.4879 23.1133C53.6138 22.7767 53.6686 22.4179 53.649 22.0592H53.6726Z" fill="#0F0B0C"/>
<path d="M71.1116 16.2361V27.3067C71.1116 31.2126 68.046 32.8714 64.9449 32.8714C63.8511 32.9609 62.7539 32.7441 61.777 32.2453C60.8 31.7465 59.9819 30.9854 59.4149 30.0479L62.398 28.3302C62.6398 28.8166 63.0243 29.2178 63.5004 29.4805C63.9765 29.7432 64.5215 29.8549 65.0628 29.8008C65.4077 29.8432 65.7577 29.8091 66.0877 29.7008C66.4178 29.5925 66.7198 29.4128 66.9721 29.1745C67.2246 28.9361 67.421 28.6452 67.5475 28.3222C67.6741 27.9994 67.7275 27.6526 67.704 27.3067V26.2361C67.2924 26.7341 66.77 27.1294 66.1786 27.3908C65.5871 27.6522 64.9427 27.7725 64.2964 27.742C62.7328 27.742 61.2333 27.1222 60.1277 26.0191C59.022 24.916 58.4009 23.4198 58.4009 21.8596C58.4009 20.2995 59.022 18.8034 60.1277 17.7002C61.2333 16.5971 62.7328 15.9773 64.2964 15.9773C64.9427 15.9468 65.5871 16.0671 66.1786 16.3285C66.77 16.5899 67.2924 16.9852 67.704 17.4832V16.3067L71.1116 16.2361ZM67.704 21.8243C67.7275 21.2615 67.5817 20.7045 67.2854 20.2249C66.9891 19.7454 66.5559 19.3653 66.0412 19.1334C65.5267 18.9015 64.9545 18.8286 64.3979 18.9239C63.8415 19.0192 63.3262 19.2783 62.9186 19.6681C62.511 20.0579 62.2296 20.5605 62.1105 21.1112C61.9914 21.6619 62.0401 22.2354 62.2503 22.7582C62.4607 23.2811 62.8229 23.7292 63.2904 24.0449C63.758 24.3607 64.3096 24.5298 64.8742 24.5302C65.2426 24.5567 65.6125 24.5058 65.9599 24.3808C66.3074 24.2558 66.6248 24.0594 66.8914 23.8043C67.1581 23.5494 67.3682 23.2414 67.5082 22.9003C67.6481 22.5593 67.7149 22.1927 67.704 21.8243Z" fill="#0F0B0C"/>
<path d="M73.1044 22.0593C73.1044 20.8372 73.4678 19.6426 74.1485 18.6266C74.8292 17.6106 75.7967 16.819 76.9285 16.3519C78.0603 15.8847 79.3056 15.7631 80.5067 16.0024C81.7079 16.2417 82.8108 16.8311 83.6761 17.696C84.5414 18.5611 85.13 19.6627 85.3675 20.8615C85.605 22.0605 85.4808 23.3027 85.0104 24.4311C84.5401 25.5595 83.7448 26.5233 82.7253 27.2006C81.7057 27.8779 80.5078 28.2381 79.2829 28.2358C78.4684 28.2437 77.6604 28.0892 76.9064 27.7814C76.1525 27.4737 75.4677 27.0188 74.8923 26.4435C74.3168 25.8682 73.8622 25.1841 73.5552 24.4313C73.2483 23.6785 73.095 22.872 73.1044 22.0593ZM81.9713 22.0593C81.9574 21.5315 81.7876 21.0195 81.4834 20.5875C81.1792 20.1557 80.7539 19.8228 80.2609 19.631C79.7679 19.4391 79.2292 19.3966 78.7121 19.509C78.1951 19.6212 77.7227 19.8833 77.3543 20.2622C76.9858 20.6412 76.7376 21.1202 76.6409 21.6393C76.5441 22.1584 76.6029 22.6944 76.8101 23.1801C77.0173 23.666 77.3636 24.08 77.8056 24.3704C78.2475 24.6606 78.7655 24.8144 79.2947 24.8122C79.6547 24.8193 80.0122 24.7521 80.3449 24.615C80.6777 24.4779 80.9785 24.2738 81.2286 24.0154C81.4786 23.7571 81.6726 23.4499 81.7984 23.1134C81.9242 22.7768 81.9791 22.418 81.9595 22.0593H81.9713Z" fill="#0F0B0C"/>
<path d="M87.1005 13.1176C87.1005 12.7034 87.2236 12.2985 87.4542 11.9541C87.6848 11.6097 88.0126 11.3413 88.3961 11.1828C88.7796 11.0243 89.2016 10.9829 89.6088 11.0637C90.0158 11.1445 90.3898 11.3439 90.6834 11.6368C90.9769 11.9297 91.1767 12.3029 91.2577 12.709C91.3387 13.1152 91.2971 13.5363 91.1383 13.919C90.9795 14.3016 90.7104 14.6286 90.3653 14.8587C90.0202 15.0889 89.6144 15.2117 89.1993 15.2117C88.6445 15.2056 88.1143 14.983 87.722 14.5916C87.3297 14.2001 87.1066 13.6711 87.1005 13.1176ZM87.4424 16.2352H90.9797V27.8823H87.4424V16.2352Z" fill="#0F0B0C"/>
<path d="M106.119 22.0581C106.159 22.8327 106.045 23.6076 105.783 24.3379C105.522 25.0683 105.118 25.7398 104.595 26.3138C104.072 26.8879 103.441 27.3531 102.737 27.6827C102.034 28.0124 101.272 28.1999 100.495 28.2346C99.836 28.2784 99.1756 28.1731 98.5632 27.9266C97.9506 27.68 97.4019 27.2987 96.9577 26.8111V32.564H93.4204V16.2346H96.9577V17.3287C97.4025 16.8425 97.9517 16.463 98.5642 16.2185C99.1768 15.9739 99.8369 15.8709 100.495 15.917C101.269 15.9517 102.028 16.1381 102.729 16.4656C103.43 16.793 104.06 17.2551 104.582 17.8253C105.104 18.3956 105.509 19.0629 105.773 19.7892C106.036 20.5154 106.154 21.2864 106.119 22.0581ZM102.582 22.0581C102.568 21.5117 102.393 20.9816 102.078 20.5341C101.764 20.0867 101.324 19.7418 100.813 19.5429C100.303 19.3438 99.7455 19.2996 99.21 19.4154C98.6747 19.5313 98.1856 19.8024 97.804 20.1945C97.4223 20.5866 97.1651 21.0824 97.0648 21.6198C96.9643 22.1571 97.025 22.712 97.2394 23.2151C97.4538 23.718 97.8121 24.1467 98.2696 24.4474C98.7271 24.7481 99.2633 24.9073 99.8112 24.9052C100.186 24.9211 100.561 24.8577 100.91 24.7191C101.259 24.5805 101.574 24.3699 101.836 24.1011C102.098 23.8323 102.299 23.5112 102.428 23.1592C102.556 22.8071 102.609 22.4319 102.582 22.0581Z" fill="#0F0B0C"/>
<path d="M116.885 24.3878C116.885 27.0702 114.527 28.2113 112.027 28.2113C111.007 28.3029 109.984 28.0872 109.088 27.5923C108.193 27.0973 107.467 26.3458 107.004 25.4349L110.046 23.7172C110.167 24.137 110.428 24.5028 110.786 24.7534C111.145 25.0039 111.578 25.1241 112.015 25.0937C112.852 25.0937 113.277 24.8349 113.277 24.3643C113.277 23.0819 107.534 23.7643 107.534 19.729C107.534 17.1878 109.68 15.9172 112.109 15.9172C113.033 15.8759 113.95 16.085 114.764 16.5221C115.578 16.9591 116.258 17.6079 116.732 18.3996L113.689 19.9996C113.555 19.6961 113.335 19.4379 113.057 19.2563C112.779 19.0746 112.454 18.9773 112.121 18.9761C111.508 18.9761 111.143 19.2113 111.143 19.6231C111.143 20.9643 116.885 20.0819 116.885 24.3878Z" fill="#0F0B0C"/>
<path d="M129.702 16.2344V27.8814H126.164V26.7873C125.762 27.2717 125.252 27.6548 124.675 27.9063C124.097 28.1577 123.469 28.27 122.839 28.2344C120.481 28.2344 118.465 26.552 118.465 23.4108V16.2344H122.002V22.8814C121.974 23.1593 122.007 23.4399 122.099 23.7039C122.191 23.9678 122.338 24.2087 122.532 24.4101C122.726 24.6114 122.962 24.7684 123.223 24.8701C123.483 24.9718 123.763 25.0158 124.042 24.9991C125.315 24.9991 126.212 24.2461 126.212 22.6461V16.2344H129.702Z" fill="#0F0B0C"/>
<path d="M149.746 20.73V27.8829H146.209V21.0359C146.209 19.8594 145.655 19.13 144.535 19.13C143.414 19.13 142.707 19.9418 142.707 21.3182V27.8829H139.17V21.0359C139.17 19.8594 138.615 19.13 137.495 19.13C136.375 19.13 135.668 19.9418 135.668 21.3182V27.8829H132.13V16.2359H135.668V17.3065C136.034 16.8335 136.512 16.4589 137.06 16.2166C137.607 15.9742 138.207 15.8716 138.804 15.9182C139.402 15.887 139.999 16.0118 140.534 16.2799C141.069 16.548 141.525 16.9505 141.858 17.4476C142.247 16.9281 142.761 16.5154 143.353 16.248C143.944 15.9805 144.595 15.867 145.242 15.9182C148.001 15.9182 149.746 17.8241 149.746 20.73Z" fill="#0F0B0C"/>
<path d="M152.718 16.1648C154.15 16.1648 155.312 15.0059 155.312 13.5765C155.312 12.1471 154.15 10.9883 152.718 10.9883C151.285 10.9883 150.124 12.1471 150.124 13.5765C150.124 15.0059 151.285 16.1648 152.718 16.1648Z" fill="#0F0B0C"/>
</svg>
