<svg width="155" height="40" viewBox="0 0 155 40" fill="none" xmlns="http://www.w3.org/2000/svg">
<path d="M54.1083 25.4119H63.1697V22.9302H57.1012V11.1746H54.1083V25.4119Z" fill="#0F0B0C"/>
<path d="M69.3093 25.6206C72.5302 25.6206 74.5346 23.403 74.5346 20.1148C74.5346 16.8056 72.5302 14.595 69.3093 14.595C66.0884 14.595 64.084 16.8056 64.084 20.1148C64.084 23.403 66.0884 25.6206 69.3093 25.6206ZM69.3231 23.3265C67.8371 23.3265 67.0768 21.9569 67.0768 20.0938C67.0768 18.2308 67.8371 16.8544 69.3231 16.8544C70.7816 16.8544 71.5418 18.2308 71.5418 20.0938C71.5418 21.9569 70.7816 23.3265 69.3231 23.3265Z" fill="#0F0B0C"/>
<path d="M80.6482 29.6388C83.6825 29.6388 85.839 28.2483 85.839 25.5163V14.734H82.9153V16.5276H82.8048C82.4107 15.6586 81.5468 14.595 79.7704 14.595C77.4411 14.595 75.4713 16.4164 75.4713 20.0522C75.4713 23.6045 77.3859 25.2591 79.7774 25.2591C81.4707 25.2591 82.4177 24.404 82.8048 23.5211H82.9292V25.4746C82.9292 26.9414 81.996 27.5115 80.7174 27.5115C79.4179 27.5115 78.7613 26.9414 78.5194 26.2949L75.7962 26.6634C76.1486 28.3456 77.7867 29.6388 80.6482 29.6388ZM80.7104 23.0345C79.2659 23.0345 78.4779 21.8805 78.4779 20.0383C78.4779 18.2238 79.2521 16.9517 80.7104 16.9517C82.1412 16.9517 82.9429 18.1682 82.9429 20.0383C82.9429 21.9222 82.1273 23.0345 80.7104 23.0345Z" fill="#0F0B0C"/>
<path d="M92.395 25.6206C95.616 25.6206 97.6204 23.403 97.6204 20.1148C97.6204 16.8056 95.616 14.595 92.395 14.595C89.1742 14.595 87.1697 16.8056 87.1697 20.1148C87.1697 23.403 89.1742 25.6206 92.395 25.6206ZM92.4089 23.3265C90.9228 23.3265 90.1625 21.9569 90.1625 20.0938C90.1625 18.2308 90.9228 16.8544 92.4089 16.8544C93.8672 16.8544 94.6275 18.2308 94.6275 20.0938C94.6275 21.9569 93.8672 23.3265 92.4089 23.3265Z" fill="#0F0B0C"/>
<path d="M98.951 25.412H101.895V14.734H98.951V25.412ZM100.43 13.3575C101.308 13.3575 102.027 12.6833 102.027 11.856C102.027 11.0357 101.308 10.3613 100.43 10.3613C99.5592 10.3613 98.8403 11.0357 98.8403 11.856C98.8403 12.6833 99.5592 13.3575 100.43 13.3575Z" fill="#0F0B0C"/>
<path d="M103.671 29.4163H106.615V23.7018H106.704C107.112 24.5917 108.003 25.5858 109.718 25.5858C112.137 25.5858 114.024 23.6602 114.024 20.0869C114.024 16.4164 112.054 14.595 109.725 14.595C107.948 14.595 107.099 15.6586 106.704 16.5276H106.573V14.734H103.671V29.4163ZM106.552 20.073C106.552 18.1682 107.354 16.9517 108.785 16.9517C110.244 16.9517 111.018 18.2238 111.018 20.073C111.018 21.9361 110.229 23.2291 108.785 23.2291C107.368 23.2291 106.552 21.9778 106.552 20.073Z" fill="#0F0B0C"/>
<path d="M124.237 17.7789C123.973 15.8116 122.398 14.595 119.716 14.595C116.999 14.595 115.21 15.8602 115.216 17.9179C115.21 19.5169 116.211 20.5527 118.285 20.9698L120.124 21.3383C121.05 21.5259 121.472 21.8666 121.485 22.4018C121.472 23.0345 120.788 23.4864 119.758 23.4864C118.707 23.4864 118.009 23.0345 117.83 22.1655L114.933 22.3185C115.21 24.3623 116.937 25.6206 119.751 25.6206C122.501 25.6206 124.471 24.2093 124.478 22.103C124.471 20.5597 123.469 19.6351 121.41 19.211L119.488 18.8216C118.499 18.6062 118.133 18.2655 118.141 17.7511C118.133 17.1116 118.852 16.6945 119.764 16.6945C120.788 16.6945 121.396 17.2575 121.54 17.9457L124.237 17.7789Z" fill="#0F0B0C"/>
<path d="M132.557 20.8656C132.564 22.2977 131.589 23.0485 130.531 23.0485C129.419 23.0485 128.7 22.263 128.693 21.0046V14.7341H125.749V21.533C125.755 24.0287 127.207 25.5512 129.342 25.5512C130.939 25.5512 132.087 24.7239 132.564 23.4725H132.674V25.4121H135.501V14.7341H132.557V20.8656Z" fill="#0F0B0C"/>
<path d="M137.272 25.412H140.217V19.0025C140.217 17.8206 140.963 17.0351 141.944 17.0351C142.912 17.0351 143.562 17.7025 143.562 18.7522V25.412H146.417V18.8912C146.417 17.7858 147.046 17.0351 148.117 17.0351C149.057 17.0351 149.762 17.6259 149.762 18.8148V25.412H152.699V18.2308C152.699 15.9158 151.331 14.595 149.354 14.595C147.799 14.595 146.589 15.3945 146.154 16.6179H146.044C145.705 15.3805 144.619 14.595 143.161 14.595C141.73 14.595 140.645 15.3597 140.203 16.6179H140.078V14.734H137.272V25.412Z" fill="#0F0B0C"/>
<path d="M17.461 2.05127H26.6374L22.954 12.4044C16.4709 13.5502 11.5123 19.859 11.5123 27.4697C11.5123 30.9031 12.5215 34.0715 14.2243 36.6204H2.03955L13.1788 5.31084C13.8791 3.34217 15.5751 2.05127 17.461 2.05127Z" fill="#0F0B0C"/>
<path d="M26.6371 2.05127L24.0484 9.32743L23.2684 2.05127H26.6371Z" fill="#0F0B0C"/>
<path d="M32.4448 2.05127H23.2684L26.9363 12.3607C33.5484 13.3797 38.6421 19.7559 38.6421 27.4697C38.6421 30.9031 37.633 34.0715 35.9301 36.6204H47.8662L36.727 5.31085C36.0267 3.34217 34.3307 2.05127 32.4448 2.05127Z" fill="#0F0B0C"/>
<path d="M15.8244 35.6241C14.2562 33.3779 13.3211 30.5467 13.3211 27.4697C13.3211 20.1698 18.5846 14.2522 25.0773 14.2522C31.5702 14.2522 36.8337 20.1698 36.8337 27.4697C36.8337 30.5467 35.8986 33.3779 34.3304 35.6241C31.7561 33.6965 28.5513 32.5534 25.0773 32.5534C21.6035 32.5534 18.3987 33.6965 15.8244 35.6241Z" fill="#0F0B0C"/>
</svg>
