<svg width="60" height="60" viewBox="0 0 60 60" fill="none" xmlns="http://www.w3.org/2000/svg">
<path d="M17.35 12.5001C17.3493 13.8261 16.8219 15.0976 15.8837 16.0349C14.9456 16.9721 13.6736 17.4982 12.3475 17.4976C11.0214 17.4969 9.74989 16.9695 8.81267 16.0313C7.87546 15.0932 7.34931 13.8211 7.34998 12.4951C7.35064 11.169 7.87806 9.89747 8.81621 8.96026C9.75436 8.02304 11.0264 7.4969 12.3525 7.49756C13.6786 7.49822 14.9501 8.02564 15.8873 8.96379C16.8245 9.90194 17.3506 11.174 17.35 12.5001ZM17.5 21.2001H7.49998V52.5001H17.5V21.2001ZM33.3 21.2001H23.35V52.5001H33.2V36.0751C33.2 26.9251 45.125 26.0751 45.125 36.0751V52.5001H55V32.6751C55 17.2501 37.35 17.8251 33.2 25.4001L33.3 21.2001Z" fill="white"/>
</svg>
