<svg width="219" height="78" viewBox="0 0 219 78" fill="none" xmlns="http://www.w3.org/2000/svg">
<path d="M92.9504 49.47V52.62H97.1804V54.618H92.9504V57.948H97.7204V60H90.4304V47.418H97.7204V49.47H92.9504ZM105.356 49.884C106.544 49.884 107.504 50.262 108.236 51.018C108.968 51.762 109.334 52.806 109.334 54.15V60H106.814V54.492C106.814 53.7 106.616 53.094 106.22 52.674C105.824 52.242 105.284 52.026 104.6 52.026C103.904 52.026 103.352 52.242 102.944 52.674C102.548 53.094 102.35 53.7 102.35 54.492V60H99.8305V50.028H102.35V51.27C102.686 50.838 103.112 50.502 103.628 50.262C104.156 50.01 104.732 49.884 105.356 49.884ZM114.485 52.098V56.922C114.485 57.258 114.563 57.504 114.719 57.66C114.887 57.804 115.163 57.876 115.547 57.876H116.717V60H115.133C113.009 60 111.947 58.968 111.947 56.904V52.098H110.759V50.028H111.947V47.562H114.485V50.028H116.717V52.098H114.485ZM127.619 54.798C127.619 55.158 127.595 55.482 127.547 55.77H120.257C120.317 56.49 120.569 57.054 121.013 57.462C121.457 57.87 122.003 58.074 122.651 58.074C123.587 58.074 124.253 57.672 124.649 56.868H127.367C127.079 57.828 126.527 58.62 125.711 59.244C124.895 59.856 123.893 60.162 122.705 60.162C121.745 60.162 120.881 59.952 120.113 59.532C119.357 59.1 118.763 58.494 118.331 57.714C117.911 56.934 117.701 56.034 117.701 55.014C117.701 53.982 117.911 53.076 118.331 52.296C118.751 51.516 119.339 50.916 120.095 50.496C120.851 50.076 121.721 49.866 122.705 49.866C123.653 49.866 124.499 50.07 125.243 50.478C125.999 50.886 126.581 51.468 126.989 52.224C127.409 52.968 127.619 53.826 127.619 54.798ZM125.009 54.078C124.997 53.43 124.763 52.914 124.307 52.53C123.851 52.134 123.293 51.936 122.633 51.936C122.009 51.936 121.481 52.128 121.049 52.512C120.629 52.884 120.371 53.406 120.275 54.078H125.009ZM131.799 51.576C132.123 51.048 132.543 50.634 133.059 50.334C133.587 50.034 134.187 49.884 134.859 49.884V52.53H134.193C133.401 52.53 132.801 52.716 132.393 53.088C131.997 53.46 131.799 54.108 131.799 55.032V60H129.279V50.028H131.799V51.576ZM139.31 52.098V56.922C139.31 57.258 139.388 57.504 139.544 57.66C139.712 57.804 139.988 57.876 140.372 57.876H141.542V60H139.958C137.834 60 136.772 58.968 136.772 56.904V52.098H135.584V50.028H136.772V47.562H139.31V50.028H141.542V52.098H139.31ZM142.527 54.978C142.527 53.97 142.725 53.076 143.121 52.296C143.529 51.516 144.075 50.916 144.759 50.496C145.455 50.076 146.229 49.866 147.081 49.866C147.825 49.866 148.473 50.016 149.025 50.316C149.589 50.616 150.039 50.994 150.375 51.45V50.028H152.913V60H150.375V58.542C150.051 59.01 149.601 59.4 149.025 59.712C148.461 60.012 147.807 60.162 147.063 60.162C146.223 60.162 145.455 59.946 144.759 59.514C144.075 59.082 143.529 58.476 143.121 57.696C142.725 56.904 142.527 55.998 142.527 54.978ZM150.375 55.014C150.375 54.402 150.255 53.88 150.015 53.448C149.775 53.004 149.451 52.668 149.043 52.44C148.635 52.2 148.197 52.08 147.729 52.08C147.261 52.08 146.829 52.194 146.433 52.422C146.037 52.65 145.713 52.986 145.461 53.43C145.221 53.862 145.101 54.378 145.101 54.978C145.101 55.578 145.221 56.106 145.461 56.562C145.713 57.006 146.037 57.348 146.433 57.588C146.841 57.828 147.273 57.948 147.729 57.948C148.197 57.948 148.635 57.834 149.043 57.606C149.451 57.366 149.775 57.03 150.015 56.598C150.255 56.154 150.375 55.626 150.375 55.014ZM156.472 48.84C156.028 48.84 155.656 48.702 155.356 48.426C155.068 48.138 154.924 47.784 154.924 47.364C154.924 46.944 155.068 46.596 155.356 46.32C155.656 46.032 156.028 45.888 156.472 45.888C156.916 45.888 157.282 46.032 157.57 46.32C157.87 46.596 158.02 46.944 158.02 47.364C158.02 47.784 157.87 48.138 157.57 48.426C157.282 48.702 156.916 48.84 156.472 48.84ZM157.714 50.028V60H155.194V50.028H157.714ZM165.55 49.884C166.738 49.884 167.698 50.262 168.43 51.018C169.162 51.762 169.528 52.806 169.528 54.15V60H167.008V54.492C167.008 53.7 166.81 53.094 166.414 52.674C166.018 52.242 165.478 52.026 164.794 52.026C164.098 52.026 163.546 52.242 163.138 52.674C162.742 53.094 162.544 53.7 162.544 54.492V60H160.024V50.028H162.544V51.27C162.88 50.838 163.306 50.502 163.822 50.262C164.35 50.01 164.926 49.884 165.55 49.884ZM184.128 49.884C185.352 49.884 186.336 50.262 187.08 51.018C187.836 51.762 188.214 52.806 188.214 54.15V60H185.694V54.492C185.694 53.712 185.496 53.118 185.1 52.71C184.704 52.29 184.164 52.08 183.48 52.08C182.796 52.08 182.25 52.29 181.842 52.71C181.446 53.118 181.248 53.712 181.248 54.492V60H178.728V54.492C178.728 53.712 178.53 53.118 178.134 52.71C177.738 52.29 177.198 52.08 176.514 52.08C175.818 52.08 175.266 52.29 174.858 52.71C174.462 53.118 174.264 53.712 174.264 54.492V60H171.744V50.028H174.264V51.234C174.588 50.814 175.002 50.484 175.506 50.244C176.022 50.004 176.586 49.884 177.198 49.884C177.978 49.884 178.674 50.052 179.286 50.388C179.898 50.712 180.372 51.18 180.708 51.792C181.032 51.216 181.5 50.754 182.112 50.406C182.736 50.058 183.408 49.884 184.128 49.884ZM199.695 54.798C199.695 55.158 199.671 55.482 199.623 55.77H192.333C192.393 56.49 192.645 57.054 193.089 57.462C193.533 57.87 194.079 58.074 194.727 58.074C195.663 58.074 196.329 57.672 196.725 56.868H199.443C199.155 57.828 198.603 58.62 197.787 59.244C196.971 59.856 195.969 60.162 194.781 60.162C193.821 60.162 192.957 59.952 192.189 59.532C191.433 59.1 190.839 58.494 190.407 57.714C189.987 56.934 189.777 56.034 189.777 55.014C189.777 53.982 189.987 53.076 190.407 52.296C190.827 51.516 191.415 50.916 192.171 50.496C192.927 50.076 193.797 49.866 194.781 49.866C195.729 49.866 196.575 50.07 197.319 50.478C198.075 50.886 198.657 51.468 199.065 52.224C199.485 52.968 199.695 53.826 199.695 54.798ZM197.085 54.078C197.073 53.43 196.839 52.914 196.383 52.53C195.927 52.134 195.369 51.936 194.709 51.936C194.085 51.936 193.557 52.128 193.125 52.512C192.705 52.884 192.447 53.406 192.351 54.078H197.085ZM206.881 49.884C208.069 49.884 209.029 50.262 209.761 51.018C210.493 51.762 210.859 52.806 210.859 54.15V60H208.339V54.492C208.339 53.7 208.141 53.094 207.745 52.674C207.349 52.242 206.809 52.026 206.125 52.026C205.429 52.026 204.877 52.242 204.469 52.674C204.073 53.094 203.875 53.7 203.875 54.492V60H201.355V50.028H203.875V51.27C204.211 50.838 204.637 50.502 205.153 50.262C205.681 50.01 206.257 49.884 206.881 49.884ZM216.009 52.098V56.922C216.009 57.258 216.087 57.504 216.243 57.66C216.411 57.804 216.687 57.876 217.071 57.876H218.241V60H216.657C214.533 60 213.471 58.968 213.471 56.904V52.098H212.283V50.028H213.471V47.562H216.009V50.028H218.241V52.098H216.009Z" fill="white"/>
<path d="M94.0226 27.192C92.1559 26.2213 91.2226 24.7187 91.2226 22.684C91.2226 21.676 91.4746 20.7613 91.9786 19.94C92.5012 19.1 93.2759 18.4373 94.3026 17.952C95.3479 17.448 96.6172 17.196 98.1106 17.196C99.6039 17.196 100.864 17.448 101.891 17.952C102.936 18.4373 103.711 19.1 104.215 19.94C104.737 20.7613 104.999 21.676 104.999 22.684C104.999 23.7107 104.747 24.616 104.243 25.4C103.739 26.1653 103.067 26.7627 102.227 27.192C103.253 27.64 104.056 28.2933 104.635 29.152C105.213 30.0107 105.503 31.028 105.503 32.204C105.503 33.4733 105.176 34.584 104.523 35.536C103.888 36.4693 103.011 37.188 101.891 37.692C100.771 38.196 99.5106 38.448 98.1106 38.448C96.7106 38.448 95.4506 38.196 94.3306 37.692C93.2292 37.188 92.3519 36.4693 91.6986 35.536C91.0639 34.584 90.7466 33.4733 90.7466 32.204C90.7466 31.028 91.0359 30.0107 91.6146 29.152C92.1932 28.2747 92.9959 27.6213 94.0226 27.192ZM101.191 23.244C101.191 22.3293 100.911 21.62 100.351 21.116C99.8092 20.612 99.0626 20.36 98.1106 20.36C97.1772 20.36 96.4306 20.612 95.8706 21.116C95.3292 21.62 95.0586 22.3387 95.0586 23.272C95.0586 24.112 95.3386 24.784 95.8986 25.288C96.4772 25.792 97.2146 26.044 98.1106 26.044C99.0066 26.044 99.7439 25.792 100.323 25.288C100.901 24.7653 101.191 24.084 101.191 23.244ZM98.1106 28.9C97.0466 28.9 96.1786 29.1707 95.5066 29.712C94.8532 30.2533 94.5266 31.028 94.5266 32.036C94.5266 32.9693 94.8439 33.7347 95.4786 34.332C96.1319 34.9107 97.0092 35.2 98.1106 35.2C99.2119 35.2 100.08 34.9013 100.715 34.304C101.349 33.7067 101.667 32.9507 101.667 32.036C101.667 31.0467 101.34 30.2813 100.687 29.74C100.033 29.18 99.1746 28.9 98.1106 28.9ZM129.411 24.504C129.411 25.5493 129.159 26.5293 128.655 27.444C128.169 28.3587 127.395 29.096 126.331 29.656C125.285 30.216 123.96 30.496 122.355 30.496H119.079V38H115.159V18.456H122.355C123.867 18.456 125.155 18.7173 126.219 19.24C127.283 19.7627 128.076 20.4813 128.599 21.396C129.14 22.3107 129.411 23.3467 129.411 24.504ZM122.187 27.332C123.269 27.332 124.072 27.0893 124.595 26.604C125.117 26.1 125.379 25.4 125.379 24.504C125.379 22.6 124.315 21.648 122.187 21.648H119.079V27.332H122.187ZM138.802 38.252C137.308 38.252 135.964 37.9253 134.77 37.272C133.575 36.6 132.632 35.6573 131.942 34.444C131.27 33.2307 130.934 31.8307 130.934 30.244C130.934 28.6573 131.279 27.2573 131.97 26.044C132.679 24.8307 133.64 23.8973 134.854 23.244C136.067 22.572 137.42 22.236 138.914 22.236C140.407 22.236 141.76 22.572 142.974 23.244C144.187 23.8973 145.139 24.8307 145.83 26.044C146.539 27.2573 146.894 28.6573 146.894 30.244C146.894 31.8307 146.53 33.2307 145.802 34.444C145.092 35.6573 144.122 36.6 142.89 37.272C141.676 37.9253 140.314 38.252 138.802 38.252ZM138.802 34.836C139.511 34.836 140.174 34.668 140.79 34.332C141.424 33.9773 141.928 33.4547 142.302 32.764C142.675 32.0733 142.862 31.2333 142.862 30.244C142.862 28.7693 142.47 27.64 141.686 26.856C140.92 26.0533 139.978 25.652 138.858 25.652C137.738 25.652 136.795 26.0533 136.03 26.856C135.283 27.64 134.91 28.7693 134.91 30.244C134.91 31.7187 135.274 32.8573 136.002 33.66C136.748 34.444 137.682 34.836 138.802 34.836ZM151.477 20.64C150.787 20.64 150.208 20.4253 149.741 19.996C149.293 19.548 149.069 18.9973 149.069 18.344C149.069 17.6907 149.293 17.1493 149.741 16.72C150.208 16.272 150.787 16.048 151.477 16.048C152.168 16.048 152.737 16.272 153.185 16.72C153.652 17.1493 153.885 17.6907 153.885 18.344C153.885 18.9973 153.652 19.548 153.185 19.996C152.737 20.4253 152.168 20.64 151.477 20.64ZM153.409 22.488V38H149.489V22.488H153.409ZM165.598 22.264C167.446 22.264 168.94 22.852 170.078 24.028C171.217 25.1853 171.786 26.8093 171.786 28.9V38H167.866V29.432C167.866 28.2 167.558 27.2573 166.942 26.604C166.326 25.932 165.486 25.596 164.422 25.596C163.34 25.596 162.481 25.932 161.846 26.604C161.23 27.2573 160.922 28.2 160.922 29.432V38H157.002V22.488H160.922V24.42C161.445 23.748 162.108 23.2253 162.91 22.852C163.732 22.46 164.628 22.264 165.598 22.264ZM179.798 25.708V33.212C179.798 33.7347 179.919 34.1173 180.162 34.36C180.423 34.584 180.853 34.696 181.45 34.696H183.27V38H180.806C177.502 38 175.85 36.3947 175.85 33.184V25.708H174.002V22.488H175.85V18.652H179.798V22.488H183.27V25.708H179.798Z" fill="white"/>
<path fill-rule="evenodd" clip-rule="evenodd" d="M39.9998 0.0898946C40.5463 -0.0147276 41.2375 -0.113844 41.6746 0.321164C42.4751 0.962662 42.3795 2.40809 41.497 2.93946C40.7129 3.38548 39.59 3.11568 39.1802 2.26769C39.0436 1.47752 38.9999 0.290879 39.9998 0.0898946Z" fill="#169FC8"/>
<path fill-rule="evenodd" clip-rule="evenodd" d="M55.0375 64.259C55.3517 63.6946 56.1003 63.8681 56.6221 63.9479C57.5838 64.2067 57.1713 65.3934 57.2423 66.1285C56.6112 66.2028 55.8845 66.6296 55.3052 66.1973C54.6523 65.8063 54.5648 64.8207 55.0375 64.259Z" fill="#169FC8"/>
<path fill-rule="evenodd" clip-rule="evenodd" d="M32.2515 0.593729C32.9564 0.574457 33.6613 0.566195 34.3662 0.574455C34.6558 1.28203 35.1148 2.11626 34.6776 2.85963C34.1503 3.88382 32.4673 3.92512 31.9755 2.84586C31.5193 2.11901 32.0138 1.30406 32.2515 0.593729Z" fill="#12A1CF"/>
<path fill-rule="evenodd" clip-rule="evenodd" d="M72.5396 52.3486C73.8209 51.3244 75.7198 53.2572 74.7389 54.554C74.2581 55.4075 73.2035 55.1404 72.4057 55.1817C71.9494 54.32 71.4877 52.9764 72.5396 52.3486Z" fill="#12A1CF"/>
<path fill-rule="evenodd" clip-rule="evenodd" d="M47.1143 1.13335C47.9667 0.52489 49.2126 1.21044 49.4421 2.16581C49.8656 3.41301 48.2154 4.71804 47.1116 3.95815C45.9969 3.41026 46.0488 1.70327 47.1143 1.13335Z" fill="#139FCE"/>
<path fill-rule="evenodd" clip-rule="evenodd" d="M25.7545 2.42187C26.4457 2.07497 27.3473 2.47417 27.6752 3.14596C27.8063 3.6553 27.8063 4.19769 27.7025 4.71254C27.1615 5.51648 25.8993 5.92946 25.2162 5.05945C24.2299 4.34086 24.7081 2.79906 25.7545 2.42187Z" fill="#0EA2D2"/>
<path fill-rule="evenodd" clip-rule="evenodd" d="M53.0676 2.93946C54.2725 2.30072 55.6877 3.89758 55.0949 5.06495C54.6687 6.26259 52.9037 6.32041 52.2534 5.29071C51.6524 4.44823 52.2507 3.36346 53.0676 2.93946Z" fill="#10A2D0"/>
<path fill-rule="evenodd" clip-rule="evenodd" d="M64.5126 64.2948C65.7311 63.6726 67.2365 65.2144 66.5862 66.4176C66.171 67.629 64.141 67.6372 63.712 66.4341C63.2585 65.6467 63.8377 64.7243 64.5126 64.2948Z" fill="#10A2D0"/>
<path fill-rule="evenodd" clip-rule="evenodd" d="M18.9569 5.76977C19.7028 5.27695 20.7191 5.71747 21.1426 6.43606C21.2628 7.16291 21.394 8.26969 20.5252 8.56704C19.864 8.73774 18.9842 8.82585 18.5252 8.20362C17.8039 7.50706 18.0936 6.20478 18.9569 5.76977Z" fill="#13A0CD"/>
<path fill-rule="evenodd" clip-rule="evenodd" d="M13.2713 19.9323C13.8615 19.2688 15.0336 19.5524 15.3915 20.337C15.4789 20.9455 15.2576 21.5319 15.121 22.1129C14.3587 22.0963 13.2631 22.3166 12.9325 21.3943C12.8916 20.8904 12.7877 20.2654 13.2713 19.9323Z" fill="#13A0CD"/>
<path fill-rule="evenodd" clip-rule="evenodd" d="M37.8387 74.9525C38.7021 74.3331 39.9479 75.0021 40.1856 75.9712C40.5572 77.3065 38.7103 78.6804 37.6475 77.6259C36.7103 76.9816 36.8251 75.4564 37.8387 74.9525Z" fill="#13A0CD"/>
<path fill-rule="evenodd" clip-rule="evenodd" d="M59.9335 6.22681C61.1875 6.16899 62.152 7.80991 61.3679 8.87815C60.5892 10.0538 58.2805 9.44807 58.5264 7.90902C58.4008 7.028 59.2231 6.49387 59.9335 6.22681Z" fill="#0FA1CE"/>
<path fill-rule="evenodd" clip-rule="evenodd" d="M39.7485 6.68935C40.2539 6.54894 40.8031 6.57922 41.2976 6.74717C42.0681 7.55937 41.6336 9.21955 40.4014 9.15347C39.1255 9.27737 38.6174 7.2042 39.7485 6.68935Z" fill="#12A1CE"/>
<path fill-rule="evenodd" clip-rule="evenodd" d="M64.8104 20.56C65.7721 20.1553 66.9879 21.7329 66.1846 22.5589C65.7256 23.3628 64.5344 23.3738 64.0317 22.6167C63.3924 21.8953 63.9962 20.8023 64.8104 20.56Z" fill="#12A1CE"/>
<path fill-rule="evenodd" clip-rule="evenodd" d="M33.7405 6.96742C34.5055 6.71137 35.6284 7.01974 35.6339 7.98611C35.9344 8.9993 34.6039 10.1116 33.7405 9.41228C32.8416 8.958 32.8771 7.44098 33.7405 6.96742Z" fill="#169FC5"/>
<path fill-rule="evenodd" clip-rule="evenodd" d="M46.2428 7.27578C47.6744 7.05828 48.2919 9.25259 47.0706 9.91612C46.4941 9.99321 45.7291 10.1309 45.3657 9.54443C44.8357 8.73499 45.2319 7.45199 46.2428 7.27578Z" fill="#1B9FC8"/>
<path fill-rule="evenodd" clip-rule="evenodd" d="M27.9812 8.57805C28.5194 8.48995 29.186 8.47068 29.5084 9.01031C30.2761 9.78396 29.4319 11.2432 28.3992 11.1C27.0468 11.1606 26.6561 8.92771 27.9812 8.57805Z" fill="#13A3CC"/>
<path fill-rule="evenodd" clip-rule="evenodd" d="M50.6278 9.02407C51.4229 8.52298 52.5349 9.2168 52.5567 10.1281C52.6442 11.0725 51.4939 11.9507 50.6552 11.4028C49.606 11.0284 49.6825 9.47835 50.6278 9.02407Z" fill="#149FCC"/>
<path fill-rule="evenodd" clip-rule="evenodd" d="M12.8478 10.2162C13.356 10.1887 13.8697 10.0896 14.3806 10.1666C15.6155 10.4089 15.8723 12.383 14.8286 13.0107C14.0473 13.6027 12.7331 13.2392 12.4353 12.2729C12.2113 11.557 12.6074 10.8687 12.8478 10.2162Z" fill="#13A0CC"/>
<path fill-rule="evenodd" clip-rule="evenodd" d="M3.95748 50.9775C4.65417 50.5122 5.74156 50.8454 6.08581 51.6053C6.3317 52.4009 6.23608 53.5077 5.35906 53.8656C4.31265 54.4521 2.94385 53.3948 3.08866 52.244C3.09412 51.6934 3.52033 51.2501 3.95748 50.9775Z" fill="#13A0CC"/>
<path fill-rule="evenodd" clip-rule="evenodd" d="M44.9532 74.4459C45.5515 74.0192 46.434 73.9917 46.9695 74.5396C47.6034 74.9966 47.4668 75.9079 47.3356 76.5797C46.7701 77.6424 44.9805 77.6534 44.4477 76.5411C44.2674 75.8308 44.1909 74.8369 44.9532 74.4459Z" fill="#13A0CC"/>
<path fill-rule="evenodd" clip-rule="evenodd" d="M22.7218 11.2817C24.0114 10.9018 24.7927 12.7464 23.8392 13.5201C23.0251 14.3543 21.4814 13.4512 21.7054 12.3472C21.8229 11.8681 22.1371 11.2129 22.7218 11.2817Z" fill="#0FA1D1"/>
<path fill-rule="evenodd" clip-rule="evenodd" d="M64.2147 13.2998C63.7612 12.5041 64.3432 11.557 65.0562 11.1633C65.6464 10.9596 66.2802 11.1853 66.8786 11.2597C67.0152 11.9204 67.4797 12.6335 67.1463 13.3053C66.6983 14.5195 64.6819 14.4837 64.2147 13.2998Z" fill="#10A1CE"/>
<path fill-rule="evenodd" clip-rule="evenodd" d="M68.9987 58.7526C69.7528 58.1689 70.8183 58.6452 71.2664 59.3804C71.4713 59.8842 71.4112 60.4486 71.4713 60.98C71.0424 61.247 70.6271 61.5416 70.1544 61.7206C69.4714 61.8638 68.9195 61.3214 68.3485 61.0405C68.4222 60.2641 68.1627 59.1959 68.9987 58.7526Z" fill="#10A1CE"/>
<path fill-rule="evenodd" clip-rule="evenodd" d="M55.2725 13.1429C55.0676 11.9342 56.4773 11.8048 57.327 11.8186C57.6166 12.4188 58.0128 13.0933 57.7369 13.7761C57.256 14.9435 55.032 14.5222 55.2725 13.1429Z" fill="#1C9FC6"/>
<path fill-rule="evenodd" clip-rule="evenodd" d="M39.5326 12.8345C39.9998 12.6803 40.4943 12.6776 40.9807 12.6198C41.0954 13.264 41.3468 13.9964 40.9287 14.5883C40.5025 14.7205 40.0381 14.7507 39.6064 14.6241C39.0053 14.2139 39.0299 13.3108 39.5326 12.8345Z" fill="#1F9EC6"/>
<path fill-rule="evenodd" clip-rule="evenodd" d="M34.3716 13.4017C34.6995 12.8125 35.4973 13.0548 36.0491 12.9171C36.2623 13.6109 36.2623 14.3378 36.0847 15.0398C35.5273 14.8967 34.6913 15.1555 34.3716 14.5415C34.1831 14.2084 34.1503 13.7266 34.3716 13.4017Z" fill="#1B9FBD"/>
<path fill-rule="evenodd" clip-rule="evenodd" d="M44.1199 13.5201C44.7073 13.4733 45.5433 12.9667 45.9204 13.6577C46.2892 14.2497 46.1553 15.3399 45.322 15.4253C44.8931 15.3399 44.4778 15.205 44.0652 15.0756C44.0926 14.558 44.109 14.0377 44.1199 13.5201Z" fill="#1C9FC2"/>
<path fill-rule="evenodd" clip-rule="evenodd" d="M29.6204 14.6847C29.921 14.0046 30.9838 14.0377 31.3444 14.6379C31.7952 15.1748 31.2597 15.8052 31.1149 16.3586C30.6122 16.3201 30.1095 16.2843 29.6095 16.2513C29.5904 15.7309 29.5303 15.2023 29.6204 14.6847Z" fill="#1F9CBD"/>
<path fill-rule="evenodd" clip-rule="evenodd" d="M48.9803 14.4507C49.7945 14.3268 50.4093 15.6841 49.8546 16.3366C49.3765 17.3443 47.8247 16.5486 47.9012 15.618C47.8547 15.004 48.4612 14.5993 48.9803 14.4507Z" fill="#1F9EBC"/>
<path fill-rule="evenodd" clip-rule="evenodd" d="M17.0116 15.1995C17.6892 15.1114 18.6209 14.6048 19.1154 15.3317C20.1017 16.1714 19.017 18.0381 17.8121 17.5122C16.6701 17.3388 17.0499 16.0172 17.0116 15.1995Z" fill="#16A0C6"/>
<path fill-rule="evenodd" clip-rule="evenodd" d="M69.2555 31.7766C70.0888 31.5729 71.0478 32.3383 70.914 33.2248C70.9905 34.2022 69.72 34.874 68.9659 34.271C67.9496 33.7314 68.2802 32.1786 69.2555 31.7766Z" fill="#16A0C6"/>
<path fill-rule="evenodd" clip-rule="evenodd" d="M8.56659 15.7254C9.24689 15.6345 10.1376 15.6125 10.4408 16.3834C11.4053 17.6609 9.60207 19.5331 8.29338 18.5998C7.11036 18.0023 7.32347 16.064 8.56659 15.7254Z" fill="#11A2CD"/>
<path fill-rule="evenodd" clip-rule="evenodd" d="M60.1821 15.9814C60.6848 15.8768 61.1875 15.7309 61.7067 15.7584C62.5536 15.9952 62.9443 17.1846 62.3077 17.8454C61.917 18.4263 61.1411 18.3409 60.5482 18.2198C59.7286 17.7215 60.01 16.7468 60.1821 15.9814Z" fill="#13A1C8"/>
<path fill-rule="evenodd" clip-rule="evenodd" d="M25.5605 16.5734C26.3883 15.8548 27.5877 17.1736 26.9839 17.9885C26.5932 18.7429 25.6998 18.4566 25.0304 18.4566C25.0632 17.7931 24.7654 16.8872 25.5605 16.5734Z" fill="#209DC5"/>
<path fill-rule="evenodd" clip-rule="evenodd" d="M52.8409 17.069C53.6687 16.3339 54.8845 17.7077 54.2588 18.5172C53.9747 19.1284 53.0266 19.2963 52.595 18.7567C52.0048 18.3189 52.2398 17.3801 52.8409 17.069Z" fill="#1F9EC7"/>
<path fill-rule="evenodd" clip-rule="evenodd" d="M69.4687 17.0111C70.6817 16.1879 72.4713 17.7049 71.7117 19.021C71.3292 20.1663 69.5725 20.2847 68.9741 19.2798C68.3758 18.5584 68.7528 17.4902 69.4687 17.0111Z" fill="#0EA2D0"/>
<path fill-rule="evenodd" clip-rule="evenodd" d="M39.202 20.1498C39.2512 19.5331 39.3714 18.9246 39.5299 18.3272C40.0408 18.6052 41.0736 18.6576 40.8277 19.4808C40.8003 20.2407 39.7266 20.0534 39.202 20.1498Z" fill="#2E94B5"/>
<path fill-rule="evenodd" clip-rule="evenodd" d="M35.5902 18.9329C35.9426 18.5667 36.7404 18.6989 36.9098 19.2275C37.3141 19.8525 36.4317 20.7665 35.8497 20.2654C35.2869 20.0947 35.1093 19.2908 35.5902 18.9329Z" fill="#2C99B7"/>
<path fill-rule="evenodd" clip-rule="evenodd" d="M43.303 19.0678C43.65 19.0072 44.0051 19.0155 44.3548 19.0595C44.6035 19.5689 44.6062 20.1443 44.6363 20.7005C44.1363 20.5958 43.4368 20.8381 43.1418 20.2902C42.8467 19.9213 42.956 19.3651 43.303 19.0678Z" fill="#2A99AD"/>
<path fill-rule="evenodd" clip-rule="evenodd" d="M21.6945 19.5524C22.2928 19.0595 23.3857 19.8029 23.1398 20.5738C23.2354 21.419 22.1617 21.8568 21.5388 21.4273C20.8913 20.9978 20.9459 19.847 21.6945 19.5524Z" fill="#1F9EC1"/>
<path fill-rule="evenodd" clip-rule="evenodd" d="M32.0466 19.8167C32.4072 19.5276 32.8006 19.7451 33.1422 19.9433C33.3034 20.494 33.3225 21.4769 32.4946 21.3172C31.6067 21.5126 31.2515 20.1498 32.0466 19.8167Z" fill="#2D96B5"/>
<path fill-rule="evenodd" clip-rule="evenodd" d="M45.9258 20.1608C46.4203 20.136 46.9258 20.0397 47.4203 20.1443C47.9503 20.6894 47.5542 21.788 46.7345 21.5842C46.0023 21.6393 46.0843 20.6592 45.9258 20.1608Z" fill="#2C9BB3"/>
<path fill-rule="evenodd" clip-rule="evenodd" d="M56.6604 20.1498C57.1194 20.114 57.7505 19.9846 57.9964 20.4995C58.2505 21.0116 58.0893 21.5952 58.0565 22.1376C57.4472 22.0633 56.5784 22.3716 56.1987 21.7302C55.9418 21.1685 56.1249 20.4692 56.6604 20.1498Z" fill="#1F9DC3"/>
<path fill-rule="evenodd" clip-rule="evenodd" d="M4.40008 21.9422C5.04213 21.6063 5.80986 21.2952 6.49563 21.7247C7.49559 22.1018 7.72509 23.338 7.45461 24.2686C7.13222 25.692 4.84542 26.3308 4.00665 25.045C3.68426 24.3485 3.71705 23.55 3.62416 22.8012L3.95474 22.8783C3.96294 23.4316 3.9083 24.0346 4.20064 24.5302C4.77438 25.3148 6.15411 25.3947 6.71147 24.5467C7.13222 23.9382 7.00927 23.0544 6.56393 22.4955C6.00111 22.1679 5.33994 22.1156 4.71428 21.9972L4.40008 21.9422Z" fill="#012F42"/>
<path fill-rule="evenodd" clip-rule="evenodd" d="M28.3063 21.631C28.7489 21.5319 29.2052 21.4879 29.656 21.43C29.6669 21.9559 29.6696 22.4818 29.6696 23.0104C29.2024 22.9719 28.7106 23.0242 28.2708 22.8397C28.1779 22.4405 28.1833 22.0192 28.3063 21.631Z" fill="#249CB5"/>
<path fill-rule="evenodd" clip-rule="evenodd" d="M49.5978 21.7136C50.0486 21.81 50.5322 21.8596 50.9202 22.1349C51.0049 22.468 51.0404 22.8287 50.9202 23.1591C50.5732 23.5831 49.9721 23.3821 49.4995 23.4344C49.5213 22.859 49.5514 22.2863 49.5978 21.7136Z" fill="#2C96B8"/>
<path fill-rule="evenodd" clip-rule="evenodd" d="M3.95474 22.8783C4.18697 22.5671 4.44106 22.2725 4.71428 21.9972C5.33994 22.1156 6.00111 22.1679 6.56393 22.4955C7.00927 23.0544 7.13222 23.9382 6.71147 24.5467C6.15411 25.3947 4.77438 25.3148 4.20064 24.5302C3.9083 24.0346 3.96294 23.4316 3.95474 22.8783Z" fill="#11A1D0"/>
<path fill-rule="evenodd" clip-rule="evenodd" d="M17.8477 23.5886C18.2575 23.4344 18.6673 23.2692 19.0962 23.1673C20.0142 23.3325 20.2219 24.6623 19.5088 25.1662C19.0034 25.5874 18.3968 25.1139 17.8613 25.001C17.8559 24.5302 17.8531 24.0594 17.8477 23.5886Z" fill="#209EC5"/>
<path fill-rule="evenodd" clip-rule="evenodd" d="M41.1555 23.5307C41.8713 23.3242 42.8959 23.2389 43.2456 24.0759C43.9204 24.9486 43.1035 26.3308 42.0462 26.2729C41.1446 26.3941 40.5954 25.502 39.8495 25.1634C36.9945 24.8192 33.9591 26.4629 32.8006 29.1445C31.7952 31.3636 32.2487 34.1526 33.929 35.9174C34.317 36.4681 35.123 36.8701 35.0273 37.6382C34.4809 38.0181 33.7487 37.8392 33.3279 37.3601C31.8171 35.8596 30.7488 33.7672 30.8991 31.5866C30.7789 27.8643 33.8662 24.5797 37.4152 23.9575C38.6419 23.6354 39.9452 23.941 41.1555 23.5307Z" fill="#EAC445"/>
<path fill-rule="evenodd" clip-rule="evenodd" d="M25.1807 25.3727C25.2326 24.7862 25.0988 23.7372 25.9293 23.718C26.8036 23.7455 26.6779 24.7642 26.6943 25.3837C26.1889 25.3837 25.6862 25.3782 25.1807 25.3727Z" fill="#2D94B6"/>
<path fill-rule="evenodd" clip-rule="evenodd" d="M72.7691 23.6436C73.7281 22.9471 75.4739 23.6464 75.2499 24.9762C75.351 26.4299 73.2581 27.0686 72.4549 25.9316C71.9986 25.2846 72.0505 24.1172 72.7691 23.6436Z" fill="#0EA2D1"/>
<path fill-rule="evenodd" clip-rule="evenodd" d="M2.51491 29.095C3.73071 28.4865 5.17874 30.0201 4.61592 31.2232C4.25255 31.9418 3.32362 32.5448 2.54496 32.0877C1.31823 31.6445 1.35375 29.6016 2.51491 29.095Z" fill="#0EA2D1"/>
<path fill-rule="evenodd" clip-rule="evenodd" d="M59.4007 24.0566C59.9034 24.0401 60.4089 24.0153 60.9116 23.9795C61.0564 24.5302 61.5509 25.1579 61.1192 25.692C60.6958 26.4051 59.5756 26.1353 59.2505 25.4718C59.1822 24.9955 59.3406 24.5274 59.4007 24.0566Z" fill="#1E9FC1"/>
<path fill-rule="evenodd" clip-rule="evenodd" d="M53.0239 24.2934C53.5458 24.2025 54.1523 24.6706 53.9556 25.2405C54.0157 26.1078 52.6114 26.2427 52.4092 25.4525C52.1196 25.034 52.5376 24.3292 53.0239 24.2934Z" fill="#2E94C0"/>
<path fill-rule="evenodd" clip-rule="evenodd" d="M10.4873 25.0368C11.3069 24.4063 12.6457 25.3204 12.4435 26.328C12.4954 27.768 9.8507 27.8092 9.89168 26.3528C9.80971 25.8187 10.0174 25.3121 10.4873 25.0368Z" fill="#13A2C9"/>
<path fill-rule="evenodd" clip-rule="evenodd" d="M67.5425 26.0279C68.3812 25.6507 69.4413 26.5455 69.2282 27.4431C69.1572 28.671 67.2529 28.905 66.7638 27.8478C66.5562 27.1182 66.7037 26.2317 67.5425 26.0279Z" fill="#10A3CE"/>
<path fill-rule="evenodd" clip-rule="evenodd" d="M43.7702 27.9662C43.4806 26.7685 45.057 25.7526 46.0297 26.4519C46.2947 26.6061 46.5488 26.7823 46.8056 26.9558C46.7783 27.9607 46.8657 28.9546 47.2209 29.9017C48.2318 33.6185 45.9012 37.7016 42.3713 39.0038C39.814 39.9096 36.8333 39.9234 34.694 41.7928C32.5384 43.5604 31.8116 46.7404 32.9181 49.2981C33.817 49.4743 34.9426 49.7661 35.0328 50.8757C35.1694 52.3679 33.0793 52.9709 32.2023 51.9577C31.6832 51.1785 31.9428 50.1626 31.5002 49.3449C30.0876 46.0163 31.6805 41.9938 34.6394 40.1106C37.2376 38.332 40.7402 38.8441 43.2948 36.9554C45.6116 35.3833 46.6963 32.1648 45.6472 29.5273C44.975 29.0978 43.7838 28.9876 43.7702 27.9662Z" fill="#FAF9F9"/>
<path fill-rule="evenodd" clip-rule="evenodd" d="M22.8065 26.8594C23.219 26.7438 23.648 26.7162 24.0715 26.6667C24.0414 27.1622 24.4403 27.8808 23.8775 28.1837C23.5578 28.5719 23.1398 28.3076 22.7874 28.1314C22.6863 27.7129 22.7027 27.2751 22.8065 26.8594Z" fill="#2F96BA"/>
<path fill-rule="evenodd" clip-rule="evenodd" d="M54.7424 27.3853C55.2452 27.3522 55.7479 27.3247 56.2533 27.2999C56.3161 27.8974 56.5976 28.905 55.6932 28.9518C54.8053 29.0647 54.6577 28.0488 54.7424 27.3853Z" fill="#2C95B5"/>
<path fill-rule="evenodd" clip-rule="evenodd" d="M15.9652 27.6028C16.7384 27.2779 17.7056 27.9607 17.5061 28.8004C17.446 29.9402 15.4652 29.8466 15.3723 28.7646C15.2876 28.2938 15.4898 27.7679 15.9652 27.6028Z" fill="#1F9EC4"/>
<path fill-rule="evenodd" clip-rule="evenodd" d="M37.5163 27.9221C38.702 27.7377 40.0736 27.6413 41.079 28.4315C42.1937 29.1803 42.9505 30.4936 42.803 31.873C42.9287 34.3867 40.0572 36.3745 37.7485 35.5898C36.0929 35.1879 34.7705 33.602 34.7678 31.8675C34.6394 30.1137 35.9098 28.4783 37.5163 27.9221Z" fill="#F5C523"/>
<path fill-rule="evenodd" clip-rule="evenodd" d="M62.152 28.437C62.794 28.2112 63.6738 28.6435 63.559 29.4116C63.7557 30.2348 62.7093 30.9286 62.029 30.4523C61.2586 30.0669 61.3487 28.7453 62.152 28.437Z" fill="#1F9EBC"/>
<path fill-rule="evenodd" clip-rule="evenodd" d="M20.7328 30.5707C20.9213 29.943 21.6781 30.0944 22.1726 29.9705C22.1945 30.59 22.1945 31.2067 22.1699 31.8234C21.7628 31.7519 21.3503 31.7106 20.9568 31.5894C20.8393 31.2728 20.5361 30.9094 20.7328 30.5707Z" fill="#2F95B4"/>
<path fill-rule="evenodd" clip-rule="evenodd" d="M74.9821 30.5845C75.7772 29.9925 76.9165 30.5404 77.2361 31.4104C77.8973 32.6687 76.1815 34.1912 75.0231 33.368C73.8428 32.8917 73.892 31.1351 74.9821 30.5845Z" fill="#12A0CE"/>
<path fill-rule="evenodd" clip-rule="evenodd" d="M8.58298 30.8433C9.76053 30.0283 11.0965 31.7711 10.2769 32.8284C9.74414 33.6956 8.71686 33.1698 7.97371 32.9495C8.06661 32.2337 7.73602 31.1902 8.58298 30.8433Z" fill="#13A0C9"/>
<path fill-rule="evenodd" clip-rule="evenodd" d="M56.7096 32.2034C56.4855 31.6087 56.5566 30.7497 57.3516 30.7249C58.3079 30.6368 58.0292 31.7381 58.1166 32.352C57.6467 32.3135 57.174 32.2915 56.7096 32.2034Z" fill="#289DB6"/>
<path fill-rule="evenodd" clip-rule="evenodd" d="M14.2604 32.4071C14.9762 31.8592 16.1264 32.6136 15.9242 33.4974C15.845 34.1829 14.8915 34.7611 14.3232 34.2518C13.6265 33.8828 13.5609 32.8146 14.2604 32.4071Z" fill="#169FC4"/>
<path fill-rule="evenodd" clip-rule="evenodd" d="M63.2421 33.3762C63.712 32.9743 64.3268 33.2055 64.8103 33.4451C65.1382 34.1774 64.9552 35.4687 63.9142 35.32C62.9061 35.3943 62.5181 33.9351 63.2421 33.3762Z" fill="#1F9FBD"/>
<path fill-rule="evenodd" clip-rule="evenodd" d="M19.3695 35.2484C19.4842 34.6427 19.4869 33.8415 20.2137 33.6488C20.7328 33.7507 21.3885 34.1334 21.118 34.7584C21.0087 35.6587 19.9705 35.2071 19.3695 35.2484Z" fill="#2B9AAE"/>
<path fill-rule="evenodd" clip-rule="evenodd" d="M58.4499 36.146C57.5975 36.2231 57.3598 34.7859 58.1357 34.5161C58.5319 34.4968 58.9308 34.4996 59.3297 34.5216C59.316 35.1163 59.2532 36.1708 58.4499 36.146Z" fill="#2C96B3"/>
<path fill-rule="evenodd" clip-rule="evenodd" d="M1.48489 35.8569C2.55862 35.4632 3.97113 36.0276 4.24162 37.2115C4.41921 38.0622 4.34544 39.1029 3.70065 39.7444C2.62146 40.43 0.927534 40.196 0.208982 39.0782C-0.334713 37.8998 0.214446 36.2781 1.48489 35.8569ZM1.67614 36.4819C0.771803 36.9114 0.269091 38.2164 1.15157 38.9405C1.9193 40.0363 3.92742 39.2158 3.72798 37.8998C3.82906 36.848 2.616 36.0579 1.67614 36.4819Z" fill="#022937"/>
<path fill-rule="evenodd" clip-rule="evenodd" d="M1.67614 36.4819C2.616 36.0579 3.82906 36.848 3.72798 37.8998C3.92742 39.2158 1.9193 40.0363 1.15157 38.9405C0.269091 38.2164 0.771803 36.9114 1.67614 36.4819Z" fill="#0DA3D2"/>
<path fill-rule="evenodd" clip-rule="evenodd" d="M7.80979 36.9637C8.58025 36.2892 9.91353 37.2225 9.70316 38.1889C9.78239 38.8001 9.22777 39.2736 8.69773 39.4306C8.1513 39.4058 7.65952 39.1415 7.15681 38.9598C7.19506 38.2549 7.01747 37.3189 7.80979 36.9637Z" fill="#15A1C7"/>
<path fill-rule="evenodd" clip-rule="evenodd" d="M14.0117 37.2197C15.3669 36.7792 15.763 39.2599 14.4216 39.3535C13.1347 39.6646 12.6375 37.4015 14.0117 37.2197Z" fill="#1D9FBD"/>
<path fill-rule="evenodd" clip-rule="evenodd" d="M19.2356 37.7484C19.5826 37.5556 20.0115 37.3546 20.312 37.7456C21.1891 38.2192 20.2219 39.9069 19.4241 39.1993C18.8531 39.0121 18.8012 38.0319 19.2356 37.7484Z" fill="#2C99B8"/>
<path fill-rule="evenodd" clip-rule="evenodd" d="M69.3785 38.0182C69.9276 38.0264 70.4768 38.0292 71.0287 38.0264C71.2309 38.5991 71.5615 39.1828 71.4194 39.8133C70.9522 40.8127 69.4249 40.8044 68.9413 39.8188C68.8184 39.1773 69.149 38.5908 69.3785 38.0182Z" fill="#13A1CF"/>
<path fill-rule="evenodd" clip-rule="evenodd" d="M75.5176 38.0072C76.3946 37.3409 77.87 37.897 77.9683 39.0451C78.1869 40.061 77.2389 41.099 76.2061 40.8567C74.8127 40.8953 74.3783 38.6542 75.5176 38.0072Z" fill="#12A1D0"/>
<path fill-rule="evenodd" clip-rule="evenodd" d="M63.7585 38.3183C64.4415 37.7456 65.5808 38.4091 65.4196 39.2901C65.5781 40.4933 63.57 40.6034 63.4334 39.4994C63.4661 39.1195 63.3186 38.4807 63.7585 38.3183Z" fill="#1E9DCC"/>
<path fill-rule="evenodd" clip-rule="evenodd" d="M58.0183 39.2984C57.7696 38.5165 58.898 37.9934 59.4362 38.5055C59.5865 38.9818 59.6111 39.4856 59.663 39.9812C59.1166 39.8959 58.0784 40.0803 58.0183 39.2984Z" fill="#2C9AB8"/>
<path fill-rule="evenodd" clip-rule="evenodd" d="M43.6773 42.5197C43.292 41.4679 44.4997 40.463 45.5051 40.7466C46.8384 40.8127 46.6772 42.4508 47.0679 43.3704C47.9285 45.6088 48.0132 48.2656 46.7482 50.3718C44.8849 53.8078 40.4725 55.4625 36.8142 54.2291C36.1448 54.0804 36.1912 53.4086 36.1776 52.8607C37.4125 52.9433 38.6283 53.2792 39.8741 53.2076C43.3849 53.1058 46.6116 49.7689 46.2783 46.1732C46.2264 45.4023 45.9777 44.6644 45.751 43.9321C44.975 43.643 43.8958 43.4805 43.6773 42.5197Z" fill="#C65F8D"/>
<path fill-rule="evenodd" clip-rule="evenodd" d="M19.2356 42.3077C19.0225 41.5753 20.1181 41.099 20.5771 41.6221C21.1399 41.9167 20.7465 42.6353 20.7738 43.1309C20.2383 43.018 19.1454 43.1336 19.2356 42.3077Z" fill="#289AB4"/>
<path fill-rule="evenodd" clip-rule="evenodd" d="M14.274 42.1755C15.4243 41.7708 16.2603 43.6347 15.1456 44.1743C14.3806 44.7415 13.2385 43.7751 13.5391 42.9079C13.7221 42.6326 13.8943 42.192 14.274 42.1755Z" fill="#1C9FC2"/>
<path fill-rule="evenodd" clip-rule="evenodd" d="M58.0101 42.1618C58.633 42.0021 59.2996 42.4123 59.1767 43.1171C59.174 43.8467 58.3734 43.9651 57.8188 43.7944C57.5183 43.2493 57.4773 42.5775 58.0101 42.1618Z" fill="#2C9AB5"/>
<path fill-rule="evenodd" clip-rule="evenodd" d="M38.5764 42.5472C40.5954 42.0571 42.8631 43.3732 43.3877 45.4133C44.1636 47.8141 42.0599 50.4902 39.5982 50.4627C37.4098 50.6004 35.4016 48.6621 35.3825 46.4678C35.4563 44.6562 36.7923 42.9354 38.5764 42.5472Z" fill="#DC5590"/>
<path fill-rule="evenodd" clip-rule="evenodd" d="M7.82072 43.029C8.51741 43.0042 9.21684 43.007 9.91353 43.0318C9.97637 43.6485 10.4217 44.3726 9.99823 44.9397C9.54196 45.7437 8.18409 45.7602 7.74695 44.926C7.29341 44.3671 7.76607 43.6485 7.82072 43.029Z" fill="#179FC6"/>
<path fill-rule="evenodd" clip-rule="evenodd" d="M63.4552 43.1694C63.8186 42.8666 64.2147 43.1006 64.5317 43.3484C65.1054 43.7834 64.7612 44.5873 64.824 45.1958C64.2066 45.1545 63.4935 45.35 62.9716 44.9177C62.8514 44.3038 62.6766 43.4062 63.4552 43.1694Z" fill="#1E9FC1"/>
<path fill-rule="evenodd" clip-rule="evenodd" d="M1.7581 44.0449C2.48485 43.5411 3.76623 43.6622 4.16512 44.5791C4.31539 45.2784 4.38915 46.2337 3.62416 46.5944C2.70889 47.3103 1.06961 46.5889 1.17889 45.3582C1.10786 44.8406 1.40019 44.3836 1.7581 44.0449Z" fill="#0EA2D2"/>
<path fill-rule="evenodd" clip-rule="evenodd" d="M68.9878 44.1358C69.8402 43.8082 70.914 44.3616 70.8539 45.3555C70.9905 46.6688 68.9113 47.1726 68.3977 46.0328C67.9305 45.3913 68.2856 44.4194 68.9878 44.1358Z" fill="#15A0C8"/>
<path fill-rule="evenodd" clip-rule="evenodd" d="M20.2929 45.9116C20.3257 45.3279 20.9432 45.1159 21.4432 45.182C21.9978 45.5592 21.8967 46.2668 21.9595 46.8505C21.3421 46.8835 20.1181 46.8147 20.2929 45.9116Z" fill="#289CB8"/>
<path fill-rule="evenodd" clip-rule="evenodd" d="M75.2089 45.1793C76.1733 44.8819 77.3099 45.6693 77.1596 46.7293C77.2334 47.9187 75.6624 48.7089 74.7499 47.9683C73.6597 47.3653 73.892 45.3279 75.2089 45.1793Z" fill="#0DA6D0"/>
<path fill-rule="evenodd" clip-rule="evenodd" d="M56.3844 45.9997C56.9227 46.063 57.6084 45.818 58.0237 46.2695C58.0401 46.6633 58.0046 47.057 57.98 47.4479C57.4882 47.4452 56.9964 47.4424 56.5047 47.4397C56.4445 46.9606 56.4063 46.4815 56.3844 45.9997Z" fill="#2C96AC"/>
<path fill-rule="evenodd" clip-rule="evenodd" d="M15.3969 47.0845C16.1893 46.5118 17.4488 47.6929 16.8559 48.5437C16.6264 49.1384 15.8259 49.2375 15.3286 48.9649C14.6128 48.607 14.662 47.3956 15.3969 47.0845Z" fill="#1C9FC0"/>
<path fill-rule="evenodd" clip-rule="evenodd" d="M61.5345 48.2464C61.8351 47.7618 62.4525 47.8885 62.9252 47.9573C63.5372 48.4116 63.2039 49.2871 63.2558 49.9341C62.723 49.9121 62.182 49.9231 61.6575 49.8157C61.3078 49.3917 61.0783 48.6786 61.5345 48.2464Z" fill="#1F9DC4"/>
<path fill-rule="evenodd" clip-rule="evenodd" d="M22.2437 48.8218C22.6781 48.7364 23.1234 48.7364 23.5633 48.7199C23.5906 49.1769 23.6179 49.634 23.648 50.091C23.1261 50.1571 22.6016 50.2094 22.077 50.2562C22.0633 49.7744 22.006 49.265 22.2437 48.8218Z" fill="#2C9AAD"/>
<path fill-rule="evenodd" clip-rule="evenodd" d="M9.9108 48.9319C10.8452 48.3785 12.1266 49.5294 11.7659 50.5288C11.4708 51.2529 10.4354 51.8723 9.78512 51.2198C8.8562 50.738 9.01466 49.3476 9.9108 48.9319Z" fill="#12A2CE"/>
<path fill-rule="evenodd" clip-rule="evenodd" d="M54.726 49.3421C55.1741 49.3311 55.6222 49.3173 56.0702 49.3063C56.0347 49.7826 56.3926 50.4654 55.8626 50.7545C55.4583 50.9445 55.002 50.9197 54.573 50.9748C54.6195 50.4296 54.6714 49.8845 54.726 49.3421Z" fill="#2F99AC"/>
<path fill-rule="evenodd" clip-rule="evenodd" d="M67.0234 50.0525C67.802 49.5156 68.9851 50.2011 68.9714 51.14C69.0971 52.0926 67.9059 53.0259 67.0972 52.3707C66.201 51.988 66.1737 50.4902 67.0234 50.0525Z" fill="#139FCC"/>
<path fill-rule="evenodd" clip-rule="evenodd" d="M49.8328 66.8773C50.3738 66.4533 51.4721 66.5194 51.7863 67.2463C52.3682 68.097 51.565 69.4186 50.5295 69.1983C49.3629 69.2341 48.8656 67.5464 49.8328 66.8773Z" fill="#139FCC"/>
<path fill-rule="evenodd" clip-rule="evenodd" d="M17.0362 52.7121C16.804 51.6383 18.099 51.2253 18.9023 51.6053C19.3257 52.1862 19.0717 52.8883 18.9678 53.527C18.2657 53.5188 17.2083 53.6316 17.0362 52.7121Z" fill="#1E9FC2"/>
<path fill-rule="evenodd" clip-rule="evenodd" d="M24.9212 51.7787C25.2326 51.787 25.7681 51.6521 25.8856 52.054C26.3856 52.6377 25.5687 53.7721 24.9212 53.2957C24.1644 53.1608 24.2081 51.8999 24.9212 51.7787Z" fill="#289BB4"/>
<path fill-rule="evenodd" clip-rule="evenodd" d="M52.2862 52.4285C52.7234 52.3349 53.1687 52.3018 53.6141 52.255C53.625 52.7644 53.6277 53.2792 53.6305 53.7913C53.1195 53.7831 52.6141 53.7748 52.1059 53.7638C52.1305 53.315 52.1469 52.858 52.2862 52.4285Z" fill="#2C9AB8"/>
<path fill-rule="evenodd" clip-rule="evenodd" d="M59.1002 52.6405C59.4936 52.0375 60.469 52.0045 60.8242 52.6405C61.2121 53.1718 60.7777 53.7803 60.6548 54.3254C60.1848 54.3144 59.7177 54.3062 59.2505 54.3007C59.1111 53.7693 58.5811 53.1195 59.1002 52.6405Z" fill="#1E9FC2"/>
<path fill-rule="evenodd" clip-rule="evenodd" d="M11.8916 55.9911C11.5173 54.7797 13.1265 53.7005 14.0609 54.5595C14.8314 55.1046 14.4243 56.049 14.2904 56.7978C13.4626 56.8033 12.1156 57.1145 11.8916 55.9911Z" fill="#1D9FC3"/>
<path fill-rule="evenodd" clip-rule="evenodd" d="M27.3719 54.2456C27.8364 54.2786 28.3063 54.2952 28.768 54.375C28.9811 55.0082 28.9456 55.8893 28.1123 55.9581C27.2025 55.8755 27.4156 54.9009 27.3719 54.2456Z" fill="#2A9BAE"/>
<path fill-rule="evenodd" clip-rule="evenodd" d="M49.1252 55.7654C48.7591 55.1955 49.4858 54.6751 49.9803 54.5842C50.8136 54.7302 50.6224 55.6332 50.7016 56.261C50.1716 56.1591 49.2918 56.4785 49.1252 55.7654Z" fill="#2A99B5"/>
<path fill-rule="evenodd" clip-rule="evenodd" d="M20.2519 55.9416C20.5388 55.3304 21.2847 55.3909 21.842 55.2725C21.9377 55.8452 22.465 56.5032 22.0251 57.0374C21.771 57.588 21.0907 57.4035 20.618 57.3567C20.2355 57.0346 19.8339 56.3904 20.2519 55.9416Z" fill="#1D9FC5"/>
<path fill-rule="evenodd" clip-rule="evenodd" d="M64.0618 55.413C64.794 55.1459 65.5043 55.5617 66.1655 55.8342C65.8704 56.5446 65.8759 57.6348 64.9798 57.8633C64.4115 57.7532 63.8896 57.4889 63.3651 57.2576C63.5099 56.6244 63.3924 55.7681 64.0618 55.413Z" fill="#139FC8"/>
<path fill-rule="evenodd" clip-rule="evenodd" d="M66.1655 55.8342L66.2447 55.5699C66.3895 56.2417 66.6518 56.919 66.5671 57.6183C65.7448 58.5213 64.4279 58.5489 63.4006 58.0203C63.3924 57.8303 63.376 57.4476 63.3651 57.2576C63.8896 57.4889 64.4115 57.7532 64.9798 57.8633C65.8759 57.6348 65.8704 56.5446 66.1655 55.8342Z" fill="#012D3B"/>
<path fill-rule="evenodd" clip-rule="evenodd" d="M31.2051 56.1921C31.6286 56.1618 32.2296 56.0875 32.2324 56.6877C32.6531 57.3402 31.5302 58.2295 30.9974 57.6211C30.4182 57.3843 30.5849 56.2389 31.2051 56.1921Z" fill="#2C93C2"/>
<path fill-rule="evenodd" clip-rule="evenodd" d="M55.9637 57.7532C55.2998 56.952 56.2861 55.4735 57.2505 56.1288C58.0456 56.4977 57.7041 57.4311 57.715 58.1166C57.1358 58.0478 56.3489 58.3451 55.9637 57.7532Z" fill="#1F9FC5"/>
<path fill-rule="evenodd" clip-rule="evenodd" d="M45.7564 56.4344C46.1936 56.4675 46.6334 56.4812 47.0651 56.5748C47.3875 56.9658 47.3711 57.4448 47.0952 57.8606C46.6389 57.9514 46.1717 57.9597 45.7073 57.99C45.7155 57.4696 45.7318 56.952 45.7564 56.4344Z" fill="#2C95AF"/>
<path fill-rule="evenodd" clip-rule="evenodd" d="M34.3935 57.8027C34.5875 57.1915 35.3497 57.4201 35.8333 57.2879C35.8661 57.7725 35.8989 58.2598 35.9289 58.7444C35.4918 58.8628 35.0547 58.9756 34.6175 59.0913C34.5465 58.6673 34.1995 58.224 34.3935 57.8027Z" fill="#2F96B0"/>
<path fill-rule="evenodd" clip-rule="evenodd" d="M7.44915 57.4806C8.14584 57.1117 9.07204 57.555 9.38077 58.2433C9.55836 58.9729 9.58021 59.9503 8.80155 60.3357C7.63766 61.2745 5.8727 59.6419 6.49017 58.3699C6.71693 57.99 7.04479 57.6623 7.44915 57.4806Z" fill="#11A2D0"/>
<path fill-rule="evenodd" clip-rule="evenodd" d="M42.1473 57.4889C42.5325 57.5357 42.9205 57.5715 43.3002 57.6568C43.6745 57.9432 43.5571 58.447 43.5571 58.849C43.0871 58.9756 42.6035 59.0417 42.1254 59.116C42.15 58.5737 42.1582 58.0313 42.1473 57.4889Z" fill="#279BBA"/>
<path fill-rule="evenodd" clip-rule="evenodd" d="M38.0983 58.3919C38.325 57.7422 39.1119 57.8853 39.6446 57.7559C39.6064 58.2515 39.9944 58.9784 39.4288 59.273C38.8796 59.8539 37.8578 59.1353 38.0983 58.3919Z" fill="#2E96B8"/>
<path fill-rule="evenodd" clip-rule="evenodd" d="M24.4294 58.6975C24.8856 58.6342 25.5578 58.4828 25.7709 59.0362C26.3719 59.6832 25.7299 60.9332 24.8419 60.6909C23.7737 60.7707 23.4376 59.0747 24.4294 58.6975Z" fill="#1C9EC1"/>
<path fill-rule="evenodd" clip-rule="evenodd" d="M51.9857 59.2289C52.6305 59.3225 53.7179 58.9398 53.931 59.8153C54.1796 60.5615 53.6059 61.4342 52.778 61.225C51.7098 61.236 52.0048 59.931 51.9857 59.2289Z" fill="#1F9EC4"/>
<path fill-rule="evenodd" clip-rule="evenodd" d="M16.1865 59.3969C16.8832 58.9068 18.2684 59.2537 18.2056 60.2806C18.3668 61.0653 17.7903 61.9326 16.9297 61.7564C15.7275 61.8224 15.1647 60.0521 16.1865 59.3969Z" fill="#12A6CE"/>
<path fill-rule="evenodd" clip-rule="evenodd" d="M60.4608 60.0301C60.9335 60.0026 61.5591 59.9227 61.8269 60.421C62.6192 61.2773 61.7886 62.8549 60.6329 62.5851C59.2095 62.563 59.1357 60.2972 60.4608 60.0301Z" fill="#159FC5"/>
<path fill-rule="evenodd" clip-rule="evenodd" d="M28.2243 61.2195C28.8472 61.1754 29.4729 61.1424 30.0986 61.1176C30.2215 61.8858 30.41 63.3229 29.2106 63.155C28.0932 63.2348 28.2189 61.9876 28.2243 61.2195Z" fill="#1F9FC0"/>
<path fill-rule="evenodd" clip-rule="evenodd" d="M47.8574 61.5802C48.2263 61.3159 48.7181 61.4425 49.1279 61.5196C49.7372 61.9573 49.6798 62.8136 49.2508 63.356C48.7481 63.4854 48.2154 63.4826 47.7181 63.3367C47.3821 62.7916 47.2782 62.0042 47.8574 61.5802Z" fill="#1D9FC1"/>
<path fill-rule="evenodd" clip-rule="evenodd" d="M33.6913 61.9574C34.429 61.7343 35.3607 62.1143 35.5656 62.9072C35.8142 63.8103 35.4317 64.9529 34.5492 65.3493C33.6667 65.6274 32.5985 65.1098 32.3662 64.1792C32.0193 63.2238 32.7815 62.2024 33.6913 61.9574ZM33.6558 62.6512C33.3198 62.8604 32.9974 63.1495 32.8717 63.5405C32.8225 64.1434 33.3935 64.5344 33.8662 64.7684C34.4317 64.628 35.0574 64.215 34.8962 63.5405C35.0137 62.8714 34.1804 62.3951 33.6558 62.6512Z" fill="#062234"/>
<path fill-rule="evenodd" clip-rule="evenodd" d="M33.6558 62.6512C34.1804 62.3951 35.0137 62.8714 34.8962 63.5405C35.0574 64.215 34.4317 64.628 33.8662 64.7684C33.3935 64.5344 32.8225 64.1434 32.8717 63.5405C32.9974 63.1495 33.3198 62.8604 33.6558 62.6512Z" fill="#169FC5"/>
<path fill-rule="evenodd" clip-rule="evenodd" d="M42.986 63.0972C43.2975 62.676 43.8767 62.7916 44.3221 62.8549C44.9668 63.312 44.7073 64.1517 44.6554 64.8069C44.1199 64.7932 43.5789 64.8317 43.0544 64.7216C42.7101 64.2783 42.4806 63.5129 42.986 63.0972Z" fill="#1F9FBA"/>
<path fill-rule="evenodd" clip-rule="evenodd" d="M11.479 63.3202C12.0501 63.2817 12.6894 63.0063 13.214 63.3642C14.2194 63.8543 14.3942 65.4897 13.3915 66.0762C12.6293 66.7094 11.367 66.346 11.0173 65.4374C10.8616 64.6913 11.1785 63.981 11.479 63.3202Z" fill="#10A3CF"/>
<path fill-rule="evenodd" clip-rule="evenodd" d="M20.8858 63.3395C21.6125 62.6815 22.9349 63.4166 22.8447 64.3609C23.0387 65.3768 21.7492 66.2579 20.924 65.5888C20.0525 65.1896 20.058 63.7855 20.8858 63.3395Z" fill="#14A0C7"/>
<path fill-rule="evenodd" clip-rule="evenodd" d="M37.8086 63.535C38.3168 63.3698 38.9452 62.8907 39.4343 63.3422C39.9588 63.7001 40.1801 64.4958 39.6228 64.9419C39.1911 65.6549 38.3715 65.0685 37.7895 64.9171C37.7977 64.4545 37.8032 63.9947 37.8086 63.535Z" fill="#209FC1"/>
<path fill-rule="evenodd" clip-rule="evenodd" d="M26.3801 66.1946C27.4812 65.6907 28.6724 67.0508 28.0522 68.0805C27.768 68.8817 26.7872 68.733 26.1342 68.5899C25.3146 67.9979 25.3856 66.5442 26.3801 66.1946Z" fill="#13A0C7"/>
<path fill-rule="evenodd" clip-rule="evenodd" d="M17.5608 67.4886C18.1892 67.3812 19.0607 67.2077 19.4787 67.8327C20.1727 68.7688 20.5388 70.2914 19.6126 71.2027C18.7192 72.1112 17.1646 71.8276 16.3122 71.0044C15.0144 69.9665 16.0472 67.6593 17.5608 67.4886ZM17.0827 68.3421C16.2029 68.9423 16.2931 70.5006 17.2766 70.9549C18.2438 71.4835 19.6454 70.7649 19.5225 69.5838C19.6618 68.2953 18.0307 67.6097 17.0827 68.3421Z" fill="#032C38"/>
<path fill-rule="evenodd" clip-rule="evenodd" d="M44.3849 67.4968C45.587 66.9875 46.8821 68.3696 46.7236 69.57C46.6444 70.173 46.5515 71.0705 45.8302 71.2137C45.0242 71.4174 44.0844 71.4752 43.3494 71.0292C42.3467 69.9031 43.0543 68.0007 44.3849 67.4968ZM43.6964 68.5045C43.6937 69.1487 43.2838 69.9995 43.8986 70.473C44.4587 71.1366 45.7018 70.9328 46.0051 70.1041C46.0542 69.6113 46.1007 69.0276 45.6854 68.6752C45.169 68.0998 44.3467 68.4715 43.6964 68.5045Z" fill="#06272C"/>
<path fill-rule="evenodd" clip-rule="evenodd" d="M17.0827 68.3421C18.0307 67.6097 19.6618 68.2953 19.5225 69.5838C19.6454 70.7649 18.2438 71.4835 17.2766 70.9549C16.2931 70.5006 16.2029 68.9423 17.0827 68.3421Z" fill="#0EA3D3"/>
<path fill-rule="evenodd" clip-rule="evenodd" d="M32.0329 68.2319C32.8034 67.7061 34.0547 68.3503 33.9891 69.3139C34.1121 70.5364 32.2542 71.1476 31.6204 70.1179C31.3362 69.5094 31.3499 68.5733 32.0329 68.2319Z" fill="#0EA3CF"/>
<path fill-rule="evenodd" clip-rule="evenodd" d="M43.6964 68.5045C44.3467 68.4715 45.169 68.0998 45.6854 68.6752C46.1007 69.0276 46.0542 69.6113 46.0051 70.1041C45.7018 70.9328 44.4587 71.1366 43.8986 70.473C43.2838 69.9995 43.6937 69.1487 43.6964 68.5045Z" fill="#10A2D2"/>
<path fill-rule="evenodd" clip-rule="evenodd" d="M38.3387 68.8569C38.9015 68.7798 39.6037 68.7826 39.8659 69.4048C40.5708 70.4703 39.1201 72.0093 38.0846 71.1724C37.1502 70.7071 37.2813 69.0414 38.3387 68.8569Z" fill="#11A6CE"/>
<path fill-rule="evenodd" clip-rule="evenodd" d="M58.5456 69.0469C59.3051 68.6532 60.5646 68.7248 60.8542 69.7022C61.4307 70.7429 60.4526 72.1828 59.2696 71.9405C57.8133 71.9212 57.3161 69.7848 58.5456 69.0469Z" fill="#11A1D2"/>
<path fill-rule="evenodd" clip-rule="evenodd" d="M23.0715 74.055C22.1316 72.9124 23.7136 70.8585 25.0031 71.6597C25.6042 71.9157 25.8747 72.5765 26.0277 73.1712C25.8883 73.7273 25.5905 74.2202 25.3255 74.7212C24.5441 74.6717 23.4841 74.947 23.0715 74.055Z" fill="#13A0CE"/>
<path fill-rule="evenodd" clip-rule="evenodd" d="M29.8663 74.5643C30.5712 74.1513 31.5165 73.452 32.2624 74.1789C33.2378 74.8231 33.0984 76.4172 32.0821 76.9459C31.3308 77.4497 30.5412 76.7807 29.88 76.4365C29.8718 75.8115 29.8691 75.1865 29.8663 74.5643Z" fill="#13A0CE"/>
<path fill-rule="evenodd" clip-rule="evenodd" d="M51.9529 72.2241C52.554 72.2076 53.1551 72.191 53.7589 72.1773C54.2288 72.8876 54.8572 73.8457 54.2425 74.6634C53.5867 75.7895 51.3191 75.36 51.4092 73.9476C51.3682 73.3199 51.7125 72.772 51.9529 72.2241Z" fill="#13A0CC"/>
</svg>
