<svg width="22" height="22" viewBox="0 0 22 22" fill="none" xmlns="http://www.w3.org/2000/svg">
<path d="M19.778 5.5441C19.118 5.8301 18.436 6.0281 17.71 6.1161C18.458 5.6761 19.03 4.9721 19.294 4.1141C18.59 4.5321 17.82 4.8181 17.006 4.9941C16.346 4.2901 15.4 3.8501 14.366 3.8501C12.364 3.8501 10.758 5.4781 10.758 7.4581C10.758 7.7441 10.78 8.0081 10.846 8.2721C7.85398 8.1401 5.21398 6.6881 3.43198 4.5101C2.15598 6.7981 3.58598 8.6901 4.53198 9.3281C3.95998 9.3281 3.38798 9.1521 2.90398 8.8881C2.90398 10.6701 4.15798 12.1441 5.78598 12.4741C5.43398 12.5841 4.64198 12.6501 4.15798 12.5401C4.61998 13.9701 5.96198 15.0261 7.52398 15.0481C6.29198 16.0161 4.48798 16.7861 2.17798 16.5441C3.78398 17.5781 5.67598 18.1721 7.72198 18.1721C14.366 18.1721 17.974 12.6721 17.974 7.9201C17.974 7.7661 17.974 7.6121 17.952 7.4581C18.7 6.9081 19.316 6.2701 19.778 5.5441Z" fill="white"/>
</svg>
