<svg width="22" height="22" viewBox="0 0 22 22" fill="none" xmlns="http://www.w3.org/2000/svg">
<path d="M19.0951 4.33407C18.6771 3.87207 18.0611 3.63007 17.2691 3.60807C15.0251 3.54207 13.4411 4.73007 12.5611 7.15007C12.5171 7.28207 12.5391 7.41407 12.6271 7.52407C12.7151 7.61207 12.8471 7.65608 12.9791 7.63407C13.2431 7.56807 13.4851 7.52407 13.7271 7.52407C14.0571 7.52407 14.4751 7.59007 14.6951 7.87607C14.8711 8.09607 14.8931 8.42607 14.7611 8.84407C14.6511 9.19607 14.1231 10.1641 13.4851 11.1981C12.6931 12.4521 12.2531 13.0021 12.1211 13.0021C11.7031 13.0021 10.1851 6.31407 10.1411 6.18207C9.70112 4.64207 9.48112 3.87207 8.07312 3.87207C6.99512 3.87207 4.59712 5.83007 2.63912 7.54607C2.50712 7.65607 2.41913 7.74407 2.33113 7.81007C2.13313 7.96407 2.11112 8.25007 2.26512 8.44807L2.63912 8.91007C2.79312 9.10807 3.07912 9.15207 3.27712 8.99808L3.29912 8.97607C3.93712 8.51407 4.53113 8.09607 4.99313 8.07407C5.47713 8.05207 5.91712 8.82207 6.42312 10.6481C7.39113 14.2121 8.86513 18.4361 10.3831 18.4361C11.9671 18.4361 13.8591 17.0941 16.3011 13.9261C18.5011 11.0441 19.6891 8.77807 19.7771 7.12807C19.8651 5.83008 19.6231 4.92807 19.0951 4.33407Z" fill="white"/>
</svg>
